# xmcd
#
# Track frame offsets: 
#        150
#        23873
#        45850
#        76424
#        131778
#        147395
#        165214
#        185406
#
# Disc length: 2722 seconds
#
# Revision: 0
# Processed by: cddbd v1.5.2PL0 Copyright (c) Steve Scherf et al.
# Submitted via: ExactAudioCopy v1.0b3
#
DISCID=5e0aa008
DTITLE=Robert Noll Blues Mission - Retrospect Volume 2
DYEAR=1900
DGENRE=Blues
TTITLE0=1 Hoochie Choochie Man
TTITLE1=2 I M Ready
TTITLE2=3 Cold Shot
TTITLE3=4 The Sky Is Cryin
TTITLE4=5 Rock Me Baby
TTITLE5=6 For The Love Of A Woman
TTITLE6=7 New Bad Attitude
TTITLE7=8 Flatt Tire
EXTD=
EXTT0=
EXTT1=
EXTT2=
EXTT3=
EXTT4=
EXTT5=
EXTT6=
EXTT7=
PLAYORDER=
